<svg xmlns="http://www.w3.org/2000/svg" viewBox="0 0 1200 630" font-family="'Trebuchet MS', system-ui, sans-serif">
  <rect width="1200" height="630" fill="#0A0C11"/>
  <g fill="#5E80FF" opacity="0.10">
    <circle cx="120" cy="120" r="3"/><circle cx="200" cy="120" r="3"/><circle cx="280" cy="120" r="3"/>
    <circle cx="120" cy="200" r="3"/><circle cx="200" cy="200" r="3"/><circle cx="280" cy="200" r="3"/>
    <circle cx="120" cy="280" r="3"/><circle cx="200" cy="280" r="3"/><circle cx="280" cy="280" r="3"/>
  </g>
  <g transform="translate(96,150)">
    <g fill="none" stroke="#5E80FF" stroke-width="6" stroke-linecap="round">
      <path d="M8 28V14A6 6 0 0 1 14 8H28"/>
      <path d="M50 8h14a6 6 0 0 1 6 6v14"/>
      <path d="M70 50v14a6 6 0 0 1-6 6H50"/>
      <path d="M28 70H14a6 6 0 0 1-6-6V50"/>
    </g>
    <circle cx="39" cy="39" r="7.5" fill="#FF6A33"/>
  </g>
  <text x="200" y="205" fill="#EEF0F4" font-size="40" font-weight="700">QuickSnap</text>

  <g transform="translate(96,300)">
    <rect x="0" y="0" width="640" height="180" rx="10" fill="none" stroke="#5E80FF" stroke-width="4" stroke-dasharray="14 10"/>
    <text x="34" y="118" fill="#EEF0F4" font-size="86" font-weight="800" letter-spacing="-2">Drag a box.</text>
    <circle cx="640" cy="180" r="11" fill="#FF6A33"/>
  </g>
  <text x="96" y="556" fill="#98A0AE" font-size="30">Press ⌘⇧2 · drag · Copy · paste anywhere — a tiny macOS menu-bar app</text>
</svg>
